<svg xmlns="http://www.w3.org/2000/svg" viewBox="0 0 24 24" fill="none" stroke="currentColor" stroke-width="2" stroke-linecap="round" stroke-linejoin="round">
  <style>
    :host, svg {
      --aitema-navy: #0f172a;
      --aitema-blue: #1e3a5f;
      --aitema-accent: #3b82f6;
      --aitema-emerald: #059669;
    }
  </style>
  <g stroke="var(--aitema-navy)">
    <path d="M5.52,15.18c-2,0-2.89-1.34-3-3.32,8.41-1.63,15.52-1.63,23.83,0-.15,1.95-1,3.32-3,3.32"/>
    <path d="M12,12.06c-2.76,0-5-2.24-5-5s2.24-5,5-5,5,2.24,5,5-2.24,5-5,5"/>
    <path d="M12,16.15a4.1,4.1,0,0,1,4.09,4.09V21a1,1,0,0,1-1,1H8.88a1,1,0,0,1-1-1v-.79A4.1,4.1,0,0,1,12,16.15Z"/>
    <rect x="7" y="8" width="10" height="4" rx="1" fill="var(--aitema-accent)" stroke="var(--aitema-accent)" />
  </g>
</svg>
